# xmcd CD database file
#
# Track frame offsets:
#	150
#	15796
#	41329
#	69091
#	90998
#	108242
#	128268
#	145732
#	164411
#	179875
#	207516
#	225999
#	245261
#	257911
#	283990
#	300356
#
# Disc length: 4284 seconds
#
# Revision: 0
# Processed by: cddbd v1.5.2PL0 Copyright (c) Steve Scherf et al.
# Submitted via: CDex 1.51
#
DISCID=c710ba10
DTITLE=Various Artist - Real Divas II
DYEAR=2005
DGENRE=Jazz
TTITLE0=Something So Sweet - Suzie Vinnick
TTITLE1=Sweet Sublime - Molly Johnson
TTITLE2=Gentle Rain - Emilie-Claire Barlow
TTITLE3=I Feel Pretty - Sophie Milman
TTITLE4=Sonny Makes Me Sunny - Andrea Menard
TTITLE5=Cast Your Fate To The Wind - Karin Plato
TTITLE6=This Is Always - Maureen Kennedy
TTITLE7=Rollercoaster Man - Dione Taylor
TTITLE8=Breathe - Coral Eden
TTITLE9=Love For Sale - Heather Bambrick
TTITLE10=Ten Cents A Dance - June Garber
TTITLE11=Crazy He Calls Me - Liberty Silver
TTITLE12=The Best Is Yet To Come - Lori Cullen
TTITLE13=You've Changed Me Llama - Jillian Lebeck
TTITLE14=La Samba - Eliana Cuevas
TTITLE15=At Last - Ali Slaight
EXTD=YEAR: 2005
EXTT0=
EXTT1=
EXTT2=
EXTT3=
EXTT4=
EXTT5=
EXTT6=
EXTT7=
EXTT8=
EXTT9=
EXTT10=
EXTT11=
EXTT12=
EXTT13=
EXTT14=
EXTT15=
PLAYORDER=
